<svg xmlns="http://www.w3.org/2000/svg" viewBox="0 0 512 512" role="img" aria-label="P&amp;B">
  <defs>
    <linearGradient id="bg" x1="0" y1="0" x2="0.78" y2="1">
      <stop offset="0" stop-color="#71b6f2"/>
      <stop offset="0.38" stop-color="#2879c7"/>
      <stop offset="1" stop-color="#082f70"/>
    </linearGradient>
    <radialGradient id="inner" cx="45%" cy="34%" r="76%">
      <stop offset="0" stop-color="#194f9a"/>
      <stop offset="0.7" stop-color="#083474"/>
      <stop offset="1" stop-color="#05285d"/>
    </radialGradient>
    <linearGradient id="gold" x1="0" y1="0" x2="1" y2="1">
      <stop offset="0" stop-color="#fff0b6"/>
      <stop offset="0.22" stop-color="#d8a852"/>
      <stop offset="0.55" stop-color="#fff2bd"/>
      <stop offset="0.78" stop-color="#b77a24"/>
      <stop offset="1" stop-color="#f1c66f"/>
    </linearGradient>
    <linearGradient id="silver" x1="0" y1="0" x2="0" y2="1">
      <stop offset="0" stop-color="#ffffff"/>
      <stop offset="0.5" stop-color="#f9f5ec"/>
      <stop offset="1" stop-color="#cfcfd1"/>
    </linearGradient>
    <filter id="shadow" x="-25%" y="-25%" width="150%" height="150%">
      <feDropShadow dx="0" dy="10" stdDeviation="9" flood-color="#001638" flood-opacity="0.48"/>
    </filter>
    <filter id="soft" x="-20%" y="-20%" width="140%" height="140%">
      <feDropShadow dx="0" dy="5" stdDeviation="4" flood-color="#001a43" flood-opacity="0.55"/>
    </filter>
  </defs>
  <rect width="512" height="512" rx="108" fill="url(#bg)"/>
  <path d="M35 115C42 57 74 30 129 24h254c59 6 88 38 95 94v276c-7 58-40 89-98 95H129c-59-6-88-38-95-95z" fill="none" stroke="#9bc9f3" stroke-opacity="0.42" stroke-width="3"/>
  <circle cx="256" cy="258" r="177" fill="url(#inner)" filter="url(#shadow)"/>
  <path d="M402 300A177 177 0 1 1 399 184" fill="none" stroke="#6f4315" stroke-width="22" stroke-linecap="round" opacity="0.65" transform="translate(0 7)"/>
  <path d="M402 293A177 177 0 1 1 399 177" fill="none" stroke="url(#gold)" stroke-width="16" stroke-linecap="round"/>
  <path d="M145 377C195 373 224 347 263 309l57 52 92-86" fill="none" stroke="#6f4315" stroke-width="20" stroke-linecap="round" stroke-linejoin="round" opacity="0.68" transform="translate(0 7)"/>
  <path d="M145 370C195 366 224 340 263 302l57 52 92-86" fill="none" stroke="url(#gold)" stroke-width="14" stroke-linecap="round" stroke-linejoin="round"/>
  <path d="M397 250l47 8-9 47-15-20-25 23-18-20 25-23z" fill="#744719" opacity="0.7" transform="translate(0 7)"/>
  <path d="M397 243l47 8-9 47-15-20-25 23-18-20 25-23z" fill="url(#gold)"/>
  <g filter="url(#soft)" fill="url(#silver)" stroke="#ffffff" stroke-opacity="0.58" stroke-width="1">
    <text x="92" y="321" font-family="Georgia, 'Times New Roman', serif" font-size="205" font-weight="600">P</text>
    <text x="287" y="321" font-family="Georgia, 'Times New Roman', serif" font-size="205" font-weight="600">B</text>
    <text x="218" y="306" font-family="Georgia, 'Times New Roman', serif" font-size="104" font-weight="500">&amp;</text>
  </g>
</svg>
